<svg viewBox="0 0 512 512">
    <path
        d="m 510.19933,249.36601 c 0,-36.75228 -25.15753,-66.60523 -56.09451,-66.60523 -14.73189,0 -27.9906,6.63398 -38.07628,17.64641 -36.71642,-30.25099 -86.23825,-50.15294 -141.53951,-53.86798 l 24.81757,-97.121561 76.03924,17.911767 c 2.60642,30.118292 24.02432,53.602614 50.20177,53.602614 0.11332,0 0.11332,0 0.22664,0 0.11332,0 0.11332,0 0.22665,0 27.87728,0 50.42841,-26.801313 50.42841,-59.838571 0,-33.03725 -22.66445,-59.838557 -50.54174,-59.838557 -0.11332,0 -0.11332,0 -0.22664,0 0,0 -0.11332,0 -0.11332,0 -19.49143,0 -36.26313,13.002614 -44.7623,32.241177 L 279.13523,9.6137261 244.23197,146.27385 l -2.83305,0.13268 c -57.00111,2.91895 -108.22276,23.08628 -145.845763,54.00066 -9.97236,-11.01243 -23.344385,-17.64641 -38.07628,-17.64641 -30.93698,0 -56.0945241,29.85295 -56.0945241,66.60523 0,26.00524 12.4654501,48.42812 30.7103351,59.44052 -0.906578,6.50131 -1.359867,13.00261 -1.359867,19.63661 0.113322,100.57124 100.856819,182.30196 225.058029,182.30196 124.2012,0 224.9447,-81.73072 224.9447,-182.43465 0,-6.63398 -0.45329,-13.13529 -1.24655,-19.63659 18.2449,-11.01243 30.71033,-33.43531 30.71033,-59.30785 z M 40.251892,276.03464 c -7.47927,-5.97059 -12.352127,-16.05425 -12.352127,-27.59738 0,-18.30981 12.578772,-33.30262 27.990601,-33.30262 6.346046,0 12.238804,2.52091 16.99834,6.76666 -15.298507,15.78889 -26.630734,34.09869 -32.636814,54.13334 z M 406.84943,61.093459 c 0,-12.206526 8.38585,-22.29019 18.69818,-22.29019 10.31232,0 18.69818,9.950977 18.69818,22.29019 0,12.206538 -8.38586,22.290202 -18.69818,22.290202 -10.31233,0 -18.69818,-9.950977 -18.69818,-22.290202 z M 145.30163,298.98822 c 0,-23.35162 16.09177,-42.19214 36.03649,-42.19214 19.94471,0 36.03648,18.84052 36.03648,42.19214 0,23.35165 -16.09177,42.19217 -36.03648,42.19217 -19.94472,0 -36.03649,-18.84052 -36.03649,-42.19217 z m 110.48922,148.0706 c -53.94141,-0.26536 -86.12493,-37.81373 -87.4848,-39.40588 l 14.27861,-16.45229 c 0.22664,0.26537 26.85738,32.1085 73.20619,32.37386 45.66887,-0.26536 72.7529,-32.10849 73.09286,-32.37386 l 14.27861,16.45229 c -1.35987,1.59215 -33.43007,39.14052 -87.37147,39.40588 z m 75.13266,-105.87843 c -19.94472,0 -36.03648,-18.84052 -36.03648,-42.19217 0,-23.35162 16.09176,-42.19214 36.03648,-42.19214 19.94472,0 36.03649,18.84052 36.03649,42.19214 0,23.35165 -16.20509,42.19217 -36.03649,42.19217 z m 140.63294,-64.61503 c -6.11941,-20.3 -17.67827,-39.00784 -33.20342,-54.92941 4.75953,-4.37844 10.7656,-6.89935 17.22498,-6.89935 15.75179,0 28.44389,15.12549 28.44389,33.83333 0.11332,11.67582 -4.87285,21.89216 -12.46545,27.99543 z"
    />
</svg>
