<svg viewBox="0 0 400 400">
  <rect style="fill: none;" width="400" height="400" />
  <path d="m 130.80073,363.62382 c 143.6343,0 222.1962,-118.99997 222.1962,-222.19619 0,-3.37999 0,-6.74475 -0.22837,-10.09429 A 158.88992,158.88992 0 0 0 391.72978,90.910492 155.87534,155.87534 0 0 1 346.87641,103.19721 78.363976,78.363976 0 0 0 381.20918,60.003388 156.49957,156.49957 0 0 1 331.62079,78.95873 78.166048,78.166048 0 0 0 198.53753,150.18209 221.709,221.709 0 0 1 37.592211,68.590386 78.150824,78.150824 0 0 0 61.769789,172.83717 77.511366,77.511366 0 0 1 26.325582,163.06259 c 0,0.31973 0,0.65468 0,0.98964 a 78.120373,78.120373 0 0 0 62.651595,76.55218 77.968122,77.968122 0 0 1 -35.261505,1.33981 78.181273,78.181273 0 0 0 72.959028,54.23207 156.6975,156.6975 0 0 1 -96.984354,33.49539 158.96606,158.96606 0 0 1 -18.589939,-1.12666 221.08477,221.08477 0 0 0 119.700323,35.0179"
  />
</svg>